<svg width="24" height="24" viewBox="0 0 24 24" fill="none" xmlns="http://www.w3.org/2000/svg">
<path d="M8.61002 4.8C8.50167 4.90046 8.41416 5.02127 8.35251 5.15555C8.29085 5.28982 8.25625 5.43493 8.25068 5.58258C8.24511 5.73023 8.26867 5.87753 8.32004 6.01607C8.3714 6.1546 8.44955 6.28167 8.55002 6.39L13.8405 12L8.55002 17.61C8.44956 17.7183 8.37142 17.8454 8.32007 17.9839C8.26871 18.1225 8.24515 18.2698 8.25072 18.4174C8.25629 18.5651 8.29089 18.7102 8.35254 18.8445C8.41419 18.9787 8.50168 19.0995 8.61002 19.2C8.71836 19.3005 8.84543 19.3786 8.98397 19.43C9.1225 19.4813 9.2698 19.5049 9.41745 19.4993C9.56509 19.4937 9.71019 19.4591 9.84447 19.3975C9.97874 19.3358 10.0996 19.2483 10.2 19.14L16.2 12.765C16.393 12.557 16.5002 12.2837 16.5002 12C16.5002 11.7163 16.393 11.443 16.2 11.235L10.2 4.86C10.0996 4.75165 9.97875 4.66415 9.84448 4.60249C9.7102 4.54084 9.5651 4.50623 9.41745 4.50066C9.2698 4.49509 9.1225 4.51866 8.98396 4.57002C8.84542 4.62138 8.71835 4.69953 8.61002 4.8Z" fill="black"/>
</svg>
