<svg width="24" height="24" viewBox="0 0 24 24" fill="none" xmlns="http://www.w3.org/2000/svg">
    <path
        d="M4.20002 4.8C3.72263 4.8 3.2648 4.98965 2.92723 5.32721C2.58967 5.66478 2.40002 6.12261 2.40002 6.6V17.4C2.40002 17.8774 2.58967 18.3352 2.92723 18.6728C3.2648 19.0104 3.72263 19.2 4.20002 19.2H19.8C20.2774 19.2 20.7353 19.0104 21.0728 18.6728C21.4104 18.3352 21.6 17.8774 21.6 17.4V6.6C21.6 6.12261 21.4104 5.66478 21.0728 5.32721C20.7353 4.98965 20.2774 4.8 19.8 4.8H4.20002ZM7.80002 12C7.32263 12 6.8648 11.8104 6.52723 11.4728C6.18967 11.1352 6.00002 10.6774 6.00002 10.2C6.00002 9.72261 6.18967 9.26478 6.52723 8.92721C6.8648 8.58965 7.32263 8.4 7.80002 8.4C8.27741 8.4 8.73525 8.58965 9.07282 8.92721C9.41038 9.26478 9.60002 9.72261 9.60002 10.2C9.60002 10.6774 9.41038 11.1352 9.07282 11.4728C8.73525 11.8104 8.27741 12 7.80002 12ZM5.93882 12.9H9.66003C10.2888 12.9 10.7988 13.41 10.7988 14.0388C10.7988 15.0552 10.1064 15.9408 9.12002 16.188L9.04922 16.206C8.22842 16.41 7.36922 16.41 6.54842 16.206L6.47642 16.188C5.99741 16.0679 5.57227 15.7912 5.26854 15.4018C4.96481 15.0124 4.79991 14.5326 4.80002 14.0388C4.80002 13.41 5.31002 12.9 5.93882 12.9ZM13.2 10.2C13.2 10.0409 13.2632 9.88826 13.3758 9.77574C13.4883 9.66322 13.6409 9.6 13.8 9.6H17.4C17.5592 9.6 17.7118 9.66322 17.8243 9.77574C17.9368 9.88826 18 10.0409 18 10.2C18 10.3591 17.9368 10.5117 17.8243 10.6243C17.7118 10.7368 17.5592 10.8 17.4 10.8H13.8C13.6409 10.8 13.4883 10.7368 13.3758 10.6243C13.2632 10.5117 13.2 10.3591 13.2 10.2ZM13.8 13.2H17.4C17.5592 13.2 17.7118 13.2632 17.8243 13.3757C17.9368 13.4883 18 13.6409 18 13.8C18 13.9591 17.9368 14.1117 17.8243 14.2243C17.7118 14.3368 17.5592 14.4 17.4 14.4H13.8C13.6409 14.4 13.4883 14.3368 13.3758 14.2243C13.2632 14.1117 13.2 13.9591 13.2 13.8C13.2 13.6409 13.2632 13.4883 13.3758 13.3757C13.4883 13.2632 13.6409 13.2 13.8 13.2Z"
        fill="#2E384D"
    />
</svg>
