<svg width="24" height="24" viewBox="0 0 24 24" fill="none" xmlns="http://www.w3.org/2000/svg">
<path d="M21 7.511C21.4601 7.80467 21.8387 8.20959 22.1009 8.68833C22.3631 9.16707 22.5003 9.70417 22.5 10.25V16.25C22.5 19.15 20.15 21.5 17.25 21.5H8.25C7.70417 21.5003 7.16707 21.3631 6.68833 21.1009C6.20959 20.8387 5.80467 20.4601 5.511 20H17.25C18.2446 20 19.1984 19.6049 19.9017 18.9017C20.6049 18.1984 21 17.2446 21 16.25V7.511ZM20 8.11V15.75C20.0001 16.5801 19.6824 17.3788 19.1123 17.9822C18.5422 18.5856 17.7628 18.948 16.934 18.995L16.75 19H5.25C4.41986 19.0001 3.62117 18.6824 3.01777 18.1123C2.41437 17.5422 2.052 16.7628 2.005 15.934L2 15.75V8.11L10.65 12.664C10.7579 12.7209 10.878 12.7507 11 12.7507C11.122 12.7507 11.2421 12.7209 11.35 12.664L20 8.11ZM5.25 4H16.75C17.4757 3.99996 18.1805 4.2427 18.7522 4.68959C19.324 5.13647 19.7298 5.7618 19.905 6.466L11 11.152L2.095 6.466C2.26265 5.79338 2.64084 5.19192 3.1744 4.74938C3.70796 4.30685 4.36898 4.04639 5.061 4.006L5.25 4Z" fill="black"/>
</svg>
