<svg width="24" height="24" viewBox="0 0 24 24" fill="none" xmlns="http://www.w3.org/2000/svg">
<path d="M12 2.39999C10.7269 2.39999 9.50601 2.90571 8.60584 3.80588C7.70566 4.70606 7.19995 5.92695 7.19995 7.19999C7.19995 8.47303 7.70566 9.69393 8.60584 10.5941C9.50601 11.4943 10.7269 12 12 12C13.273 12 14.4939 11.4943 15.3941 10.5941C16.2942 9.69393 16.8 8.47303 16.8 7.19999C16.8 5.92695 16.2942 4.70606 15.3941 3.80588C14.4939 2.90571 13.273 2.39999 12 2.39999Z" fill="black"/>
<path d="M6.01078 13.2C5.69474 13.1987 5.38156 13.2599 5.08921 13.3799C4.79685 13.4999 4.53106 13.6765 4.30709 13.8995C4.08311 14.1224 3.90536 14.3874 3.78402 14.6792C3.66267 14.9711 3.60013 15.284 3.59998 15.6C3.59998 17.6292 4.59958 19.1592 6.16198 20.1564C7.70038 21.1368 9.77398 21.6 12 21.6C14.226 21.6 16.2996 21.1368 17.838 20.1564C19.4004 19.1604 20.4 17.628 20.4 15.6C20.4 14.9635 20.1471 14.353 19.697 13.9029C19.2469 13.4529 18.6365 13.2 18 13.2H6.01078Z" fill="black"/>
</svg>
