<svg width="349" height="343" viewBox="0 0 349 343" fill="none" xmlns="http://www.w3.org/2000/svg">
<g clip-path="url(#clip0)">
<path d="M349 230.711H215.114V153.233H349V230.711ZM215.931 229.894H348.183V154.05H215.931V229.894Z" fill="#E0E0E0"/>
<path d="M321.38 194.546H233.045V197.135H321.38V194.546Z" fill="#F0F0F0"/>
<path d="M327.466 204.202H233.045V207.028H327.466V204.202Z" fill="#F0F0F0"/>
<path d="M327.466 213.972H233.045V216.799H327.466V213.972Z" fill="#F0F0F0"/>
<path d="M263.917 180.519H233.045V187.242H263.917V180.519Z" fill="#F0F0F0"/>
<path d="M348.592 153.642H215.547V165.978H348.592V153.642Z" fill="#E0E0E0"/>
<path d="M338.355 164.131C338.184 163.968 339.899 161.901 342.179 159.516C344.458 157.13 346.459 155.325 346.623 155.48C346.786 155.635 345.079 157.71 342.8 160.104C340.52 162.497 338.519 164.295 338.355 164.131Z" fill="white"/>
<path d="M346.639 164.131C346.476 164.295 344.482 162.497 342.195 160.104C339.908 157.71 338.2 155.643 338.372 155.48C338.543 155.317 340.528 157.114 342.816 159.516C345.103 161.917 346.794 163.968 346.639 164.131Z" fill="white"/>
<path d="M184.25 0.2146H51.2051V76.8833H184.25V0.2146Z" fill="#E6E6E6"/>
<path d="M157.046 41.1263H68.7118V43.716H157.046V41.1263Z" fill="#F0F0F0"/>
<path d="M163.132 50.7825H68.7118V53.609H163.132V50.7825Z" fill="#F0F0F0"/>
<path d="M163.132 60.553H68.7118V63.3795H163.132V60.553Z" fill="#F0F0F0"/>
<path d="M99.5835 27.0997H68.7118V33.8231H99.5835V27.0997Z" fill="#F0F0F0"/>
<path d="M184.25 0.2146H51.2051V12.5502H184.25V0.2146Z" fill="#E0E0E0"/>
<path d="M173.565 10.6468C173.393 10.4916 175.109 8.41656 177.388 6.03113C179.667 3.6457 181.668 1.84029 181.832 2.00368C181.995 2.16706 180.288 4.23389 178.009 6.61932C175.729 9.00475 173.728 10.7938 173.565 10.6468Z" fill="white"/>
<path d="M181.832 10.6468C181.669 10.8102 179.675 9.01296 177.388 6.61936C175.1 4.22576 173.393 2.16711 173.565 2.00372C173.736 1.84034 175.721 3.63757 178.009 6.03118C180.296 8.42478 182.003 10.4916 181.832 10.6468Z" fill="white"/>
<path d="M133.862 142.638H0V65.1522H133.862V142.638ZM0.816928 141.821H133.045V65.9692H0.816928V141.821Z" fill="#E0E0E0"/>
<path d="M106.25 106.472H17.9152V109.062H106.25V106.472Z" fill="#F0F0F0"/>
<path d="M112.336 116.129H17.9152V118.955H112.336V116.129Z" fill="#F0F0F0"/>
<path d="M112.336 125.899H17.9152V128.726H112.336V125.899Z" fill="#F0F0F0"/>
<path d="M48.7869 92.4458H17.9152V99.1691H48.7869V92.4458Z" fill="#F0F0F0"/>
<path d="M133.453 65.5607H0.408447V77.8963H133.453V65.5607Z" fill="#E0E0E0"/>
<path d="M288.351 160.39H131.256V301.032H288.351V160.39Z" fill="#E6E6E6"/>
<path d="M139.156 116.088H16.0935V243.945H139.156V116.088Z" fill="#F0F0F0"/>
<path d="M139.156 116.088H16.0935V130.016H139.156V116.088Z" fill="#E0E0E0"/>
<path d="M26.256 122.909C26.2336 123.414 26.0634 123.902 25.7665 124.311C25.4695 124.72 25.059 125.033 24.5858 125.211C24.1125 125.389 23.5974 125.424 23.1044 125.312C22.6115 125.2 22.1622 124.945 21.8126 124.58C21.4629 124.215 21.2281 123.755 21.1374 123.258C21.0468 122.76 21.1041 122.247 21.3024 121.782C21.5007 121.317 21.8312 120.921 22.2529 120.642C22.6746 120.363 23.169 120.214 23.6745 120.213C24.3737 120.23 25.0377 120.524 25.5214 121.029C26.0051 121.534 26.2692 122.21 26.256 122.909Z" fill="white"/>
<path d="M36.7372 122.909C36.7164 123.417 36.5468 123.907 36.2495 124.319C35.9522 124.73 35.5404 125.046 35.0653 125.225C34.5902 125.405 34.0727 125.441 33.5774 125.329C33.082 125.216 32.6306 124.961 32.2793 124.594C31.928 124.227 31.6924 123.765 31.6017 123.265C31.511 122.766 31.5693 122.25 31.7692 121.783C31.9692 121.316 32.3021 120.919 32.7264 120.639C33.1507 120.36 33.6478 120.212 34.1557 120.213C34.8549 120.23 35.5188 120.524 36.0025 121.029C36.4862 121.534 36.7504 122.21 36.7372 122.909Z" fill="white"/>
<path d="M47.2184 122.909C47.1976 123.417 47.028 123.907 46.7307 124.319C46.4334 124.73 46.0216 125.046 45.5465 125.225C45.0714 125.405 44.5539 125.441 44.0586 125.329C43.5632 125.216 43.1118 124.961 42.7605 124.594C42.4092 124.227 42.1736 123.765 42.0829 123.265C41.9922 122.766 42.0505 122.25 42.2504 121.783C42.4504 121.316 42.7833 120.919 43.2076 120.639C43.6319 120.36 44.129 120.212 44.6369 120.213C45.3361 120.23 46 120.524 46.4837 121.029C46.9674 121.534 47.2316 122.21 47.2184 122.909Z" fill="white"/>
<path d="M331.428 28.1781H174.333V184.751H331.428V28.1781Z" fill="#F0F0F0"/>
<path d="M331.428 28.1781H174.333V46.5181H331.428V28.1781Z" fill="#E0E0E0"/>
<path d="M187.714 37.1642C187.685 37.831 187.461 38.4746 187.069 39.0151C186.678 39.5556 186.137 39.9693 185.512 40.2047C184.888 40.4402 184.208 40.487 183.557 40.3394C182.906 40.1919 182.313 39.8564 181.851 39.3746C181.389 38.8928 181.079 38.286 180.959 37.6295C180.839 36.9731 180.915 36.2958 181.176 35.6818C181.438 35.0679 181.874 34.5443 182.431 34.1761C182.987 33.8078 183.64 33.6112 184.307 33.6106C185.229 33.632 186.106 34.018 186.744 34.684C187.383 35.35 187.731 36.2418 187.714 37.1642Z" fill="white"/>
<path d="M200.515 34.7625C200.968 35.2543 201.266 35.8685 201.372 36.5286C201.479 37.1887 201.388 37.8654 201.113 38.4745C200.837 39.0837 200.388 39.5982 199.822 39.954C199.256 40.3099 198.598 40.4913 197.93 40.4757C197.261 40.4601 196.612 40.2482 196.063 39.8663C195.515 39.4845 195.09 38.9496 194.843 38.3283C194.596 37.707 194.538 37.0267 194.675 36.3723C194.812 35.7179 195.138 35.1183 195.614 34.6481C196.279 34.0145 197.169 33.6708 198.088 33.6922C199.007 33.7137 199.88 34.0985 200.515 34.7625Z" fill="white"/>
<path d="M215.31 37.1642C215.281 37.831 215.057 38.4746 214.665 39.0151C214.274 39.5556 213.732 39.9693 213.108 40.2047C212.483 40.4402 211.804 40.487 211.153 40.3394C210.502 40.1919 209.909 39.8564 209.447 39.3746C208.985 38.8928 208.675 38.286 208.555 37.6295C208.435 36.9731 208.511 36.2958 208.772 35.6818C209.034 35.0679 209.47 34.5443 210.027 34.1761C210.583 33.8078 211.236 33.6112 211.903 33.6106C212.825 33.632 213.702 34.018 214.34 34.684C214.978 35.35 215.327 36.2418 215.31 37.1642Z" fill="white"/>
<path d="M297.493 342.573C297.493 342.687 240.765 342.785 170.812 342.785C100.858 342.785 44.106 342.687 44.106 342.573C44.106 342.459 100.825 342.361 170.812 342.361C240.798 342.361 297.493 342.467 297.493 342.573Z" fill="#263238"/>
<path d="M242.219 242.565C229.598 233.75 226.738 217.387 227.237 202.674C227.319 200.223 227.049 197.625 228.217 195.477C229.385 193.328 232.114 191.85 234.311 192.879C236.133 193.737 236.926 195.861 237.947 197.617C239.309 199.957 241.306 201.863 243.706 203.115C245.266 203.932 247.203 204.422 248.747 203.573C250.871 202.404 251.116 199.488 251.099 197.037C251.099 192.479 251.072 187.926 251.018 183.378C250.871 180.936 251.119 178.487 251.753 176.124C252.513 173.804 254.204 171.655 256.516 171.002C258.827 170.348 261.711 171.696 262.234 174.081C262.324 175.092 262.349 176.107 262.308 177.12C262.373 178.142 262.847 179.261 263.803 179.571C264.758 179.882 265.755 179.171 266.49 178.452C269.006 176.001 270.722 172.807 272.315 169.654C273.908 166.5 275.468 163.257 277.756 160.569C280.043 157.882 283.205 155.75 286.742 155.545C290.279 155.341 293.964 157.514 294.846 160.945C295.728 164.376 293.727 167.881 291.578 170.667C288.336 174.802 284.514 178.447 280.231 181.491C279.395 181.948 278.728 182.661 278.328 183.525C277.797 185.159 279.341 186.793 280.95 187.308C282.772 187.912 284.749 187.724 286.668 187.953C288.588 188.182 290.63 189.015 291.358 190.812C292.354 193.312 290.263 195.926 288.212 197.642C284.095 201.073 279.42 203.772 274.39 205.623C272.593 206.277 270.706 206.857 269.251 208.115C267.797 209.373 266.931 211.57 267.805 213.294C268.68 215.018 270.926 215.565 272.813 215.214C274.7 214.863 276.375 213.85 278.172 213.171C281.53 211.905 285.86 212.134 287.975 215.034C288.631 216.033 289.046 217.17 289.188 218.357C289.329 219.543 289.194 220.746 288.792 221.872C287.975 224.111 286.716 226.164 285.092 227.909C279.741 234.302 272.789 239.159 264.946 241.985C257.161 244.68 249.947 245.416 242.211 242.581" fill="#FEB674"/>
<path d="M291.251 157.563C291.251 157.563 291.178 157.645 291.014 157.792L290.287 158.437C289.65 159.009 288.711 159.842 287.526 160.945C284.168 164.064 281.049 167.431 278.197 171.018C276.375 173.281 274.488 175.846 272.478 178.632C270.469 181.417 268.394 184.424 266.335 187.618C264.14 190.986 262.13 194.472 260.314 198.058C259.367 199.929 258.533 201.881 257.676 203.875L255.143 209.961C251.805 217.627 248.898 225.474 246.435 233.464C244.451 240.002 243.083 246.711 242.35 253.503C241.875 258.087 241.798 262.704 242.121 267.301C242.252 268.935 242.374 270.185 242.489 271.034C242.538 271.443 242.571 271.77 242.603 272.007V272.342C242.568 272.235 242.543 272.126 242.53 272.015C242.489 271.778 242.44 271.459 242.374 271.051C242.227 270.234 242.072 268.943 241.925 267.309C241.531 262.703 241.558 258.071 242.007 253.471C242.695 246.649 244.032 239.909 246.002 233.341C248.444 225.329 251.343 217.462 254.686 209.781L257.283 203.72C258.141 201.734 258.983 199.766 259.938 197.887C261.767 194.289 263.793 190.795 266.008 187.422C268.1 184.154 270.207 181.197 272.192 178.436C274.177 175.674 276.097 173.093 277.911 170.838C280.792 167.26 283.953 163.917 287.363 160.839C288.572 159.752 289.536 158.936 290.189 158.388L290.949 157.776C291.042 157.694 291.143 157.623 291.251 157.563Z" fill="#263238"/>
<path d="M260.045 197.87C259.929 197.534 259.85 197.186 259.808 196.833C259.677 196.155 259.53 195.199 259.358 193.957C259.007 191.506 258.648 188.149 258.264 184.432C257.88 180.715 257.447 177.349 257.087 174.923C256.9 173.714 256.736 172.742 256.622 172.064C256.533 171.717 256.486 171.36 256.483 171.002C256.624 171.329 256.725 171.672 256.785 172.023C256.965 172.693 257.169 173.657 257.398 174.874C257.864 177.325 258.321 180.658 258.705 184.383C259.089 188.108 259.416 191.376 259.669 193.916C259.791 195.06 259.898 196.032 259.979 196.808C260.043 197.159 260.065 197.515 260.045 197.87Z" fill="#263238"/>
<path d="M291.48 192.005C291.083 192.091 290.678 192.141 290.271 192.152C289.454 192.225 288.294 192.324 286.856 192.487C283.981 192.797 280.027 193.369 275.689 194.186C271.351 195.003 267.454 195.926 264.652 196.637C263.255 196.996 262.128 197.323 261.384 197.544C260.988 197.685 260.577 197.783 260.159 197.838C260.537 197.648 260.93 197.492 261.335 197.372C262.103 197.103 263.214 196.727 264.603 196.326C267.389 195.51 271.286 194.537 275.64 193.704C279.328 192.999 283.05 192.481 286.791 192.152C288.237 192.029 289.405 191.98 290.222 191.964C290.642 191.936 291.063 191.949 291.48 192.005Z" fill="#263238"/>
<path d="M246.402 232.77C246.315 232.651 246.244 232.522 246.19 232.386L245.65 231.25C245.185 230.262 244.556 228.799 243.804 227.01C242.285 223.416 240.349 218.384 238.29 212.796C236.231 207.208 234.336 202.176 232.898 198.54C232.196 196.776 231.616 195.33 231.183 194.251L230.725 193.083C230.662 192.949 230.618 192.806 230.594 192.658C230.682 192.777 230.753 192.906 230.807 193.042L231.346 194.178C231.804 195.166 232.441 196.629 233.192 198.418C234.712 202.012 236.648 207.045 238.707 212.632C240.765 218.22 242.661 223.252 244.098 226.888C244.801 228.652 245.381 230.098 245.806 231.177C245.994 231.642 246.149 231.994 246.271 232.345C246.335 232.48 246.379 232.623 246.402 232.77Z" fill="#263238"/>
<path d="M288.131 219.315C288 219.39 287.86 219.448 287.714 219.486L286.505 219.895L282.036 221.341C278.262 222.566 273.05 224.314 267.332 226.242C261.613 228.17 256.377 229.886 252.578 231.03C250.683 231.61 249.139 232.051 248.068 232.345L246.835 232.663C246.691 232.709 246.544 232.739 246.394 232.753C246.525 232.678 246.665 232.621 246.81 232.582L248.019 232.173L252.488 230.727C256.262 229.502 261.474 227.754 267.193 225.826C272.911 223.898 278.14 222.182 281.938 221.039C283.842 220.459 285.378 220.017 286.456 219.723L287.69 219.405C287.833 219.359 287.981 219.329 288.131 219.315Z" fill="#263238"/>
<path d="M271.106 21.1524L266.899 22.6556L265.093 17.1576C261.777 7.01956 251.206 1.63601 241.492 5.05894C231.779 8.48187 226.608 19.6003 229.925 29.7383L231.73 35.2363L227.506 36.7476C225.896 37.3723 224.588 38.5935 223.855 40.1576C223.121 41.7216 223.019 43.508 223.569 45.1456L235.275 80.9189C235.518 81.7296 235.922 82.4831 236.462 83.1348C237.002 83.7864 237.667 84.3229 238.419 84.7123C239.17 85.1017 239.992 85.3361 240.836 85.4016C241.68 85.467 242.528 85.3622 243.33 85.0934L286.93 69.4983C288.562 68.8747 289.888 67.6426 290.63 66.0611C291.372 64.4796 291.472 62.6721 290.908 61.0185L279.193 25.2452C278.944 24.4368 278.535 23.687 277.989 23.0403C277.444 22.3937 276.774 21.8636 276.019 21.4816C275.264 21.0996 274.44 20.8736 273.596 20.8171C272.752 20.7605 271.905 20.8746 271.106 21.1524ZM237.873 26.8709C236.979 24.2349 237.139 21.355 238.321 18.8347C239.503 16.3144 241.614 14.3491 244.213 13.3508C245.496 12.9118 246.854 12.7357 248.207 12.8331C249.559 12.9306 250.878 13.2994 252.085 13.9178C253.292 14.5361 254.362 15.3912 255.231 16.4321C256.101 17.4729 256.751 18.6782 257.145 19.9761L258.942 25.474L239.67 32.3689L237.873 26.8709ZM262.381 58.6168L265.371 67.75C265.426 67.9332 265.408 68.1304 265.322 68.3008C265.235 68.4712 265.086 68.6016 264.905 68.665L260.715 70.16C260.548 70.2062 260.37 70.1861 260.217 70.1039C260.065 70.0216 259.95 69.8836 259.898 69.7188L256.883 60.6264C255.221 60.5358 253.626 59.9397 252.312 58.9177C250.998 57.8957 250.028 56.4967 249.531 54.9079C248.82 52.8075 248.95 50.5137 249.892 48.5067C250.835 46.4998 252.518 44.9353 254.588 44.1408C255.61 43.7916 256.692 43.6517 257.769 43.7295C258.846 43.8073 259.897 44.1012 260.858 44.5937C261.819 45.0862 262.672 45.7671 263.364 46.596C264.057 47.4248 264.575 48.3846 264.889 49.4182C265.415 51.032 265.458 52.7642 265.014 54.4024C264.57 56.0406 263.658 57.5137 262.389 58.6413L262.381 58.6168Z" fill="#FEB674"/>
<path d="M266.711 22.5576C266.711 22.672 258.909 25.6047 249.204 29.093C239.499 32.5813 231.583 35.3834 231.542 35.3017C231.501 35.22 239.344 32.2627 249.057 28.7662C258.77 25.2698 266.67 22.4514 266.711 22.5576Z" fill="#263238"/>
<path d="M275.975 24.0607C276.011 24.1316 276.041 24.2053 276.065 24.2812C276.13 24.4446 276.204 24.657 276.302 24.9184C276.514 25.5148 276.808 26.3399 277.176 27.3692L280.313 36.5025C281.62 40.3747 283.18 44.9659 284.912 50.0635C285.729 52.6205 286.693 55.2837 287.592 58.0857C288.072 59.5297 288.28 61.0506 288.204 62.5707C288.135 63.3612 287.91 64.1303 287.542 64.8336C287.15 65.5345 286.626 66.1531 285.998 66.6553C284.736 67.5766 283.335 68.2909 281.849 68.7712L277.641 70.2825L269.676 73.1336L256.189 77.9371L247.08 81.1395L244.629 81.9564L243.976 82.1688C243.906 82.1999 243.831 82.2192 243.755 82.226C243.755 82.226 243.82 82.226 243.959 82.1279L244.597 81.8747L247.047 80.9516L256.107 77.6185L269.57 72.7169L277.519 69.8413L281.726 68.3219C283.171 67.8611 284.531 67.1686 285.753 66.2714C286.337 65.8054 286.825 65.2312 287.191 64.5803C287.537 63.9299 287.746 63.2152 287.804 62.4808C287.879 61.0162 287.68 59.5505 287.216 58.1593C286.333 55.3817 285.402 52.694 284.561 50.137C282.862 45.0312 281.293 40.4237 280.051 36.5515C278.81 32.6793 277.764 29.5668 277.045 27.3774C276.702 26.3072 276.44 25.474 276.228 24.8694L276.032 24.2159C276.007 24.1664 275.988 24.1143 275.975 24.0607Z" fill="#263238"/>
<path d="M252.97 12.7953C252.97 12.7953 252.537 12.5829 251.737 12.2561C250.595 11.8177 249.389 11.5746 248.167 11.5372C246.355 11.4751 244.553 11.8155 242.889 12.5339C240.866 13.4284 239.136 14.8753 237.898 16.7084C236.651 18.5363 235.983 20.6964 235.978 22.9089C235.995 24.7222 236.27 26.5239 236.795 28.2598C237.22 29.7466 237.661 30.9311 237.955 31.7562C238.128 32.1753 238.271 32.6068 238.38 33.047C238.148 32.6551 237.954 32.2421 237.8 31.8134C237.465 30.9965 236.983 29.8364 236.509 28.3415C235.927 26.5874 235.611 24.7564 235.57 22.9089C235.548 20.6128 236.232 18.3656 237.53 16.4715C238.812 14.5714 240.612 13.0798 242.718 12.1744C244.433 11.4521 246.292 11.1335 248.15 11.2431C249.399 11.3068 250.625 11.5974 251.769 12.1009C252.075 12.242 252.37 12.4059 252.652 12.5911C252.768 12.6421 252.875 12.711 252.97 12.7953Z" fill="#263238"/>
<path d="M253.346 44.7617C253.476 44.6827 253.613 44.6144 253.754 44.5575C254.163 44.373 254.587 44.2227 255.021 44.1082C255.709 43.905 256.419 43.7843 257.136 43.7487C258.112 43.6963 259.088 43.8437 260.004 44.1817C262.095 44.917 264.015 47.0491 264.963 49.9002C265.417 51.4302 265.417 53.0594 264.963 54.5894C264.459 56.25 263.556 57.7618 262.332 58.9926L262.381 58.7721C263.468 61.7538 264.652 64.9889 265.878 68.3628L265.951 68.567L265.747 68.6405L263.876 69.2614L259.792 70.6257L259.587 70.691L259.522 70.4868C258.403 67.1047 257.177 63.9514 256.254 60.8552L256.434 60.9941C254.837 60.8614 253.314 60.262 252.055 59.2704C250.916 58.3931 249.982 57.278 249.318 56.0027C248.72 54.8717 248.421 53.6058 248.453 52.3265C248.49 51.0189 248.817 49.736 249.409 48.5694C250 47.4028 250.843 46.3815 251.875 45.5787C252.301 45.2336 252.778 44.9579 253.289 44.7617C252.827 45.0355 252.38 45.3327 251.949 45.6522C250.815 46.612 249.945 47.8468 249.425 49.2385C248.978 50.288 248.769 51.4234 248.812 52.5632C248.856 53.703 249.152 54.819 249.678 55.8311C250.331 57.058 251.242 58.1283 252.349 58.9681C253.55 59.9107 255.002 60.4789 256.524 60.602H256.663L256.704 60.7245C257.602 63.7635 258.836 66.9413 259.971 70.3398L259.702 70.2091L263.786 68.8448L265.649 68.2157L265.518 68.4935C264.301 65.1196 263.125 61.8764 262.046 58.8946V58.7721L262.144 58.674C263.332 57.4943 264.217 56.0455 264.726 54.4505C265.159 52.9869 265.159 51.4291 264.726 49.9656C263.835 47.2207 261.997 45.1375 260.004 44.4023C259.122 44.0621 258.18 43.9037 257.235 43.9366C256.529 43.9528 255.827 44.0487 255.143 44.2226C253.926 44.5248 253.354 44.8026 253.346 44.7617Z" fill="#263238"/>
<path d="M228.095 280.642L146.492 280.266C141.779 280.24 137.27 278.345 133.953 274.996C130.637 271.648 128.786 267.12 128.805 262.408L129.671 57.8408C129.681 55.506 130.15 53.1961 131.053 51.043C131.956 48.8898 133.275 46.9358 134.933 45.2925C136.592 43.6491 138.558 42.3488 140.719 41.4657C142.88 40.5827 145.194 40.1343 147.529 40.1461L229.124 40.5219C233.837 40.5457 238.347 42.4389 241.665 45.7857C244.982 49.1325 246.836 53.6592 246.819 58.3718L245.953 262.931C245.943 265.266 245.474 267.577 244.571 269.731C243.668 271.885 242.35 273.84 240.692 275.485C239.034 277.129 237.068 278.431 234.906 279.316C232.745 280.201 230.43 280.651 228.095 280.642Z" fill="#455A64"/>
<path d="M229.001 47.5557H213.186C212.67 47.5652 212.16 47.6764 211.687 47.8827C211.214 48.0891 210.787 48.3867 210.428 48.7584C210.07 49.1301 209.789 49.5687 209.601 50.0492C209.412 50.5297 209.32 51.0426 209.33 51.5586V54.4261C209.339 54.9417 209.247 55.4542 209.059 55.9342C208.87 56.4142 208.589 56.8523 208.231 57.2234C207.872 57.5945 207.444 57.8912 206.971 58.0967C206.498 58.3022 205.99 58.4123 205.474 58.4208L174.643 58.282C173.6 58.2541 172.611 57.8135 171.892 57.0569C171.174 56.3002 170.785 55.2894 170.812 54.2463V51.3789C170.838 50.3373 170.45 49.3276 169.734 48.5712C169.017 47.8148 168.03 47.3732 166.988 47.3433H161.425L147.578 47.2779C144.285 47.2583 141.117 48.5446 138.77 50.855C136.423 53.1655 135.087 56.3119 135.055 59.6054L134.238 259.279C134.23 260.913 134.545 262.532 135.163 264.045C135.781 265.557 136.691 266.933 137.841 268.093C138.991 269.254 140.359 270.177 141.865 270.809C143.372 271.441 144.988 271.771 146.622 271.778L228.054 272.154C229.689 272.161 231.309 271.847 232.823 271.228C234.336 270.609 235.713 269.699 236.874 268.548C238.035 267.397 238.959 266.029 239.591 264.521C240.224 263.013 240.553 261.396 240.561 259.761L241.378 60.0874C241.397 56.7846 240.105 53.6093 237.784 51.2594C235.463 48.9095 232.304 47.5773 229.001 47.5557Z" fill="white"/>
<path d="M218.046 245.514L157.496 245.252C156.866 245.252 156.36 244.566 156.368 243.733L156.433 227.893C156.433 227.076 156.948 226.373 157.577 226.373L218.128 226.651C218.477 226.711 218.788 226.904 218.998 227.188C219.208 227.473 219.3 227.828 219.255 228.179L219.198 244.002C219.198 244.844 218.675 245.522 218.046 245.514Z" fill="#FEB674"/>
<path d="M170.496 239.049C170.073 239.049 169.667 238.981 169.277 238.846C168.892 238.71 168.594 238.531 168.382 238.309L168.618 237.845C168.824 238.051 169.098 238.219 169.439 238.349C169.781 238.474 170.133 238.537 170.496 238.537C171.006 238.537 171.388 238.444 171.643 238.26C171.898 238.07 172.025 237.826 172.025 237.528C172.025 237.301 171.955 237.119 171.814 236.983C171.678 236.848 171.51 236.745 171.309 236.674C171.109 236.599 170.83 236.517 170.472 236.431C170.044 236.322 169.702 236.219 169.447 236.122C169.193 236.019 168.973 235.864 168.789 235.658C168.61 235.452 168.52 235.173 168.52 234.821C168.52 234.533 168.596 234.273 168.748 234.04C168.9 233.801 169.133 233.612 169.447 233.471C169.762 233.33 170.152 233.259 170.618 233.259C170.944 233.259 171.261 233.305 171.57 233.398C171.884 233.484 172.155 233.606 172.383 233.763L172.179 234.243C171.941 234.086 171.686 233.969 171.415 233.894C171.144 233.812 170.878 233.772 170.618 233.772C170.12 233.772 169.743 233.869 169.488 234.064C169.239 234.254 169.114 234.501 169.114 234.804C169.114 235.032 169.182 235.216 169.317 235.357C169.458 235.493 169.632 235.598 169.838 235.674C170.049 235.745 170.331 235.823 170.683 235.91C171.101 236.013 171.437 236.116 171.692 236.219C171.952 236.317 172.171 236.468 172.35 236.674C172.529 236.875 172.619 237.149 172.619 237.496C172.619 237.783 172.54 238.046 172.383 238.284C172.231 238.518 171.995 238.705 171.675 238.846C171.356 238.981 170.962 239.049 170.496 239.049ZM173.93 233.308H174.531V239H173.93V233.308ZM181.14 233.308V239H180.644L176.985 234.381V239H176.383V233.308H176.879L180.547 237.927V233.308H181.14ZM187.007 236.154H187.584V238.325C187.318 238.558 187.004 238.737 186.641 238.862C186.278 238.986 185.895 239.049 185.494 239.049C184.925 239.049 184.413 238.924 183.957 238.675C183.502 238.425 183.144 238.081 182.884 237.642C182.624 237.198 182.494 236.702 182.494 236.154C182.494 235.607 182.624 235.113 182.884 234.674C183.144 234.23 183.502 233.883 183.957 233.633C184.413 233.384 184.928 233.259 185.502 233.259C185.936 233.259 186.334 233.33 186.698 233.471C187.061 233.606 187.367 233.81 187.616 234.081L187.242 234.463C186.793 234.018 186.221 233.796 185.527 233.796C185.066 233.796 184.649 233.899 184.275 234.105C183.906 234.306 183.616 234.587 183.404 234.951C183.193 235.308 183.087 235.71 183.087 236.154C183.087 236.599 183.193 237 183.404 237.357C183.616 237.715 183.906 237.997 184.275 238.203C184.643 238.409 185.058 238.512 185.519 238.512C186.104 238.512 186.6 238.366 187.007 238.073V236.154ZM193.708 239.049C192.971 239.049 192.396 238.837 191.984 238.415C191.572 237.992 191.366 237.376 191.366 236.569V233.308H191.968V236.544C191.968 237.206 192.117 237.699 192.415 238.024C192.713 238.349 193.144 238.512 193.708 238.512C194.277 238.512 194.711 238.349 195.009 238.024C195.307 237.699 195.456 237.206 195.456 236.544V233.308H196.042V236.569C196.042 237.376 195.836 237.992 195.424 238.415C195.017 238.837 194.445 239.049 193.708 239.049ZM199.985 233.308C200.712 233.308 201.281 233.482 201.693 233.829C202.105 234.175 202.311 234.652 202.311 235.26C202.311 235.867 202.105 236.344 201.693 236.691C201.281 237.032 200.712 237.203 199.985 237.203H198.457V239H197.855V233.308H199.985ZM199.969 236.674C200.533 236.674 200.964 236.552 201.262 236.309C201.56 236.059 201.709 235.71 201.709 235.26C201.709 234.799 201.56 234.446 201.262 234.203C200.964 233.953 200.533 233.829 199.969 233.829H198.457V236.674H199.969Z" fill="#E8E8E3"/>
<path d="M169.573 106.252L148.562 106.157L148.544 110.013L169.556 110.108L169.573 106.252Z" fill="#FEB674"/>
<path opacity="0.1" d="M169.573 106.252L148.562 106.157L148.544 110.013L169.556 110.108L169.573 106.252Z" fill="black"/>
<path d="M231.166 129.926C231.331 129.91 231.493 129.871 231.648 129.812C231.874 129.724 232.071 129.573 232.215 129.378C232.36 129.183 232.446 128.951 232.465 128.709C232.465 127.41 232.465 125.515 232.465 123.081C232.465 121.863 232.465 120.499 232.465 118.996C232.465 118.628 232.465 118.244 232.465 117.86C232.518 117.488 232.437 117.109 232.236 116.79C232.124 116.638 231.978 116.513 231.809 116.427C231.64 116.34 231.454 116.294 231.264 116.292H229.99H218.185L149.857 116.039C149.682 116.036 149.509 116.075 149.353 116.153C149.196 116.231 149.061 116.346 148.959 116.488C148.761 116.808 148.686 117.188 148.746 117.558C148.746 118.375 148.746 119.192 148.746 120.009C148.746 121.643 148.746 123.277 148.746 124.911C148.746 125.727 148.746 126.544 148.746 127.361C148.712 127.742 148.712 128.125 148.746 128.505C148.789 128.668 148.869 128.819 148.979 128.947C149.09 129.074 149.228 129.175 149.383 129.24C149.544 129.304 149.717 129.335 149.89 129.33H154.048L172.192 129.428L202.909 129.616L223.618 129.779L229.246 129.845H230.709C231.044 129.845 231.207 129.845 231.207 129.845H230.709H229.246H223.618H202.909L172.192 129.747L154.048 129.673H149.89C149.661 129.682 149.433 129.644 149.22 129.559C149.005 129.467 148.814 129.327 148.661 129.15C148.508 128.973 148.397 128.764 148.338 128.538C148.291 128.323 148.274 128.103 148.289 127.884V127.28C148.289 126.463 148.289 125.646 148.289 124.829C148.289 123.195 148.289 121.561 148.289 119.927C148.289 119.11 148.289 118.293 148.289 117.477C148.273 117.259 148.273 117.041 148.289 116.823C148.319 116.583 148.412 116.355 148.558 116.161C148.699 115.964 148.886 115.804 149.102 115.694C149.318 115.585 149.558 115.529 149.8 115.532L218.128 115.908L229.933 115.99H231.207C231.432 115.99 231.653 116.044 231.852 116.148C232.051 116.252 232.222 116.402 232.351 116.586C232.581 116.941 232.674 117.368 232.612 117.787C232.612 118.171 232.612 118.555 232.612 118.922C232.612 120.409 232.612 121.774 232.612 123.007C232.612 125.458 232.555 127.337 232.539 128.644C232.519 128.895 232.427 129.136 232.275 129.337C232.123 129.538 231.917 129.692 231.681 129.779C231.526 129.875 231.348 129.926 231.166 129.926Z" fill="#E0E0E0"/>
<path d="M193.301 120.14H154.873V123.742H193.301V120.14Z" fill="#FEB674"/>
<path opacity="0.2" d="M193.301 120.14H154.873V123.742H193.301V120.14Z" fill="white"/>
<path d="M169.43 141.428L148.419 141.333L148.401 145.189L169.412 145.284L169.43 141.428Z" fill="#FEB674"/>
<path opacity="0.1" d="M169.43 141.428L148.419 141.333L148.401 145.189L169.412 145.284L169.43 141.428Z" fill="black"/>
<path d="M230.635 165.103C230.8 165.083 230.964 165.053 231.125 165.014C231.354 164.941 231.563 164.82 231.741 164.66C231.919 164.499 232.06 164.302 232.155 164.082C232.283 163.753 232.334 163.397 232.302 163.045C232.302 162.653 232.302 162.228 232.302 161.754C232.302 160.806 232.302 159.728 232.302 158.486V153.299C232.341 152.923 232.258 152.545 232.065 152.221C231.863 151.888 231.546 151.64 231.174 151.526C230.767 151.454 230.353 151.432 229.941 151.461H218.185L150.094 151.208C149.728 151.208 149.374 151.342 149.1 151.584C148.825 151.826 148.647 152.16 148.599 152.523C148.599 153.299 148.599 154.157 148.599 154.974C148.599 156.607 148.599 158.241 148.599 159.875C148.599 160.692 148.599 161.509 148.599 162.326C148.569 162.708 148.585 163.092 148.648 163.47C148.75 163.801 148.96 164.088 149.245 164.287C149.546 164.478 149.901 164.57 150.258 164.548H151.393H153.754L171.833 164.638L202.443 164.826L223.079 164.989L228.691 165.054H230.153H230.643H230.153H228.691H223.079H202.443L171.816 165.022L153.738 164.956H150.184C149.742 164.983 149.304 164.865 148.934 164.622C148.562 164.364 148.291 163.986 148.166 163.551C148.093 163.136 148.071 162.714 148.101 162.293C148.101 161.476 148.101 160.659 148.101 159.842C148.101 158.209 148.101 156.575 148.101 154.941C148.101 154.124 148.101 153.307 148.101 152.49C148.161 152.023 148.388 151.594 148.742 151.282C149.095 150.971 149.55 150.799 150.021 150.799L218.112 151.175L229.867 151.265C230.305 151.238 230.744 151.268 231.174 151.355C231.599 151.493 231.957 151.784 232.179 152.172C232.391 152.531 232.482 152.949 232.441 153.364C232.441 153.748 232.441 154.124 232.441 154.5C232.441 155.978 232.441 157.334 232.441 158.584C232.441 159.834 232.441 160.888 232.441 161.852C232.441 162.318 232.441 162.751 232.441 163.151C232.47 163.516 232.411 163.883 232.269 164.221C232.163 164.447 232.01 164.647 231.819 164.807C231.629 164.968 231.406 165.086 231.166 165.152C230.988 165.167 230.808 165.151 230.635 165.103Z" fill="#E0E0E0"/>
<path d="M169.272 178.131L148.26 178.036L148.243 181.892L169.254 181.987L169.272 178.131Z" fill="#FEB674"/>
<path opacity="0.1" d="M169.272 178.131L148.26 178.036L148.243 181.892L169.254 181.987L169.272 178.131Z" fill="black"/>
<path d="M230.472 201.792C230.637 201.772 230.801 201.742 230.962 201.702C231.189 201.63 231.398 201.51 231.576 201.351C231.753 201.192 231.895 200.997 231.991 200.779C232.119 200.449 232.17 200.094 232.138 199.741C232.138 199.341 232.138 198.924 232.138 198.442C232.138 197.503 232.138 196.416 232.138 195.175V189.987C232.177 189.612 232.094 189.233 231.901 188.909C231.695 188.582 231.38 188.339 231.011 188.223C230.604 188.147 230.19 188.122 229.777 188.149H218.022L149.931 187.896C149.565 187.897 149.211 188.03 148.936 188.272C148.661 188.514 148.483 188.848 148.436 189.211C148.436 190.028 148.436 190.845 148.436 191.662C148.436 193.296 148.436 194.93 148.436 196.563C148.436 197.38 148.436 198.197 148.436 199.014C148.405 199.393 148.422 199.775 148.485 200.15C148.583 200.483 148.794 200.772 149.081 200.967C149.381 201.162 149.737 201.254 150.094 201.228H153.648L171.726 201.326L202.337 201.514L222.972 201.677L228.585 201.743H230.047C230.374 201.743 230.537 201.743 230.537 201.743C230.537 201.743 230.374 201.743 230.047 201.743H228.585H222.972H202.337L171.726 201.653L153.648 201.579H150.094C149.652 201.609 149.212 201.491 148.844 201.244C148.473 200.987 148.201 200.609 148.076 200.174C148.003 199.759 147.981 199.337 148.011 198.916C148.011 198.099 148.011 197.282 148.011 196.465C148.011 194.831 148.011 193.198 148.011 191.564C148.011 190.747 148.011 189.93 148.011 189.072C148.069 188.606 148.295 188.176 148.647 187.865C148.999 187.554 149.453 187.382 149.923 187.381L218.014 187.757L229.769 187.847C230.207 187.82 230.646 187.85 231.076 187.937C231.501 188.075 231.859 188.366 232.081 188.754C232.292 189.113 232.384 189.531 232.343 189.946C232.343 190.33 232.343 190.714 232.343 191.082C232.343 192.56 232.343 193.917 232.343 195.166C232.343 196.416 232.343 197.47 232.343 198.434C232.343 198.9 232.343 199.333 232.343 199.733C232.374 200.098 232.315 200.466 232.171 200.803C232.065 201.029 231.912 201.229 231.721 201.389C231.531 201.55 231.308 201.668 231.068 201.735C230.877 201.8 230.672 201.82 230.472 201.792Z" fill="#E0E0E0"/>
<path d="M192.481 156.335L154.053 156.161L154.037 159.763L192.465 159.938L192.481 156.335Z" fill="#FEB674"/>
<path opacity="0.2" d="M192.481 156.335L154.053 156.161L154.037 159.763L192.465 159.938L192.481 156.335Z" fill="white"/>
<path d="M157.528 195.126C157.504 195.454 157.384 195.768 157.183 196.03C156.982 196.291 156.709 196.487 156.397 196.594C156.085 196.701 155.749 196.714 155.43 196.632C155.111 196.55 154.823 196.376 154.602 196.132C154.381 195.887 154.236 195.584 154.186 195.258C154.136 194.932 154.183 194.599 154.321 194.3C154.458 194 154.681 193.748 154.961 193.574C155.24 193.4 155.565 193.311 155.894 193.32C156.349 193.346 156.776 193.549 157.082 193.887C157.388 194.225 157.548 194.67 157.528 195.126Z" fill="#FEB674"/>
<path d="M162.732 195.15C162.748 195.38 162.717 195.612 162.64 195.829C162.562 196.047 162.441 196.246 162.284 196.415C162.126 196.584 161.936 196.719 161.724 196.811C161.513 196.903 161.284 196.95 161.053 196.95C160.822 196.95 160.594 196.903 160.382 196.811C160.171 196.719 159.98 196.584 159.823 196.415C159.665 196.246 159.544 196.047 159.467 195.829C159.39 195.612 159.358 195.38 159.374 195.15C159.358 194.92 159.39 194.689 159.467 194.471C159.544 194.253 159.665 194.054 159.823 193.885C159.98 193.716 160.171 193.582 160.382 193.49C160.594 193.398 160.822 193.35 161.053 193.35C161.284 193.35 161.513 193.398 161.724 193.49C161.936 193.582 162.126 193.716 162.284 193.885C162.441 194.054 162.562 194.253 162.64 194.471C162.717 194.689 162.748 194.92 162.732 195.15Z" fill="#FEB674"/>
<path d="M167.944 195.175C167.92 195.503 167.8 195.818 167.599 196.079C167.398 196.34 167.125 196.536 166.813 196.643C166.501 196.75 166.165 196.763 165.846 196.681C165.527 196.599 165.239 196.425 165.018 196.181C164.797 195.936 164.653 195.633 164.603 195.307C164.552 194.981 164.599 194.648 164.737 194.349C164.874 194.049 165.097 193.797 165.377 193.623C165.656 193.449 165.981 193.361 166.31 193.369C166.765 193.397 167.19 193.601 167.496 193.939C167.801 194.276 167.962 194.72 167.944 195.175Z" fill="#FEB674"/>
<path d="M173.148 195.199C173.124 195.528 173.004 195.842 172.803 196.103C172.602 196.364 172.328 196.56 172.017 196.667C171.705 196.775 171.369 196.788 171.05 196.706C170.731 196.623 170.443 196.449 170.222 196.205C170.001 195.961 169.856 195.657 169.806 195.331C169.756 195.006 169.803 194.672 169.941 194.373C170.078 194.074 170.301 193.821 170.58 193.647C170.86 193.473 171.185 193.385 171.514 193.394C171.968 193.421 172.394 193.625 172.699 193.963C173.005 194.3 173.166 194.744 173.148 195.199Z" fill="#FEB674"/>
<path d="M178.352 195.215C178.329 195.545 178.211 195.86 178.01 196.122C177.81 196.384 177.537 196.582 177.226 196.69C176.914 196.798 176.578 196.813 176.258 196.731C175.938 196.65 175.65 196.477 175.428 196.233C175.206 195.988 175.06 195.685 175.01 195.359C174.959 195.033 175.006 194.699 175.143 194.399C175.281 194.099 175.503 193.846 175.783 193.672C176.063 193.498 176.388 193.409 176.718 193.418C177.171 193.446 177.595 193.649 177.9 193.985C178.206 194.32 178.368 194.762 178.352 195.215Z" fill="#FEB674"/>
<path d="M183.564 195.24C183.541 195.567 183.424 195.881 183.226 196.143C183.027 196.404 182.757 196.602 182.448 196.712C182.138 196.821 181.804 196.838 181.485 196.76C181.166 196.682 180.877 196.513 180.654 196.273C180.43 196.033 180.281 195.733 180.226 195.409C180.171 195.086 180.211 194.753 180.342 194.452C180.474 194.152 180.69 193.896 180.965 193.716C181.24 193.537 181.561 193.442 181.889 193.443C182.349 193.46 182.784 193.659 183.098 193.995C183.412 194.332 183.579 194.78 183.564 195.24Z" fill="#FEB674"/>
<path d="M188.768 195.264C188.784 195.495 188.752 195.726 188.675 195.943C188.598 196.161 188.477 196.361 188.32 196.529C188.162 196.698 187.972 196.833 187.76 196.925C187.548 197.017 187.32 197.064 187.089 197.064C186.858 197.064 186.63 197.017 186.418 196.925C186.206 196.833 186.016 196.698 185.858 196.529C185.701 196.361 185.58 196.161 185.503 195.943C185.425 195.726 185.394 195.495 185.41 195.264C185.394 195.034 185.425 194.803 185.503 194.585C185.58 194.368 185.701 194.168 185.858 193.999C186.016 193.831 186.206 193.696 186.418 193.604C186.63 193.512 186.858 193.464 187.089 193.464C187.32 193.464 187.548 193.512 187.76 193.604C187.972 193.696 188.162 193.831 188.32 193.999C188.477 194.168 188.598 194.368 188.675 194.585C188.752 194.803 188.784 195.034 188.768 195.264Z" fill="#FEB674"/>
<path d="M193.971 195.289C193.949 195.616 193.832 195.93 193.633 196.192C193.435 196.453 193.165 196.651 192.855 196.761C192.546 196.87 192.212 196.887 191.893 196.809C191.574 196.731 191.285 196.562 191.061 196.322C190.838 196.082 190.689 195.781 190.634 195.458C190.578 195.135 190.619 194.802 190.75 194.501C190.881 194.201 191.098 193.945 191.373 193.765C191.647 193.586 191.969 193.491 192.297 193.492C192.757 193.509 193.192 193.707 193.505 194.044C193.819 194.381 193.987 194.829 193.971 195.289Z" fill="#FEB674"/>
<path d="M199.175 195.313C199.153 195.643 199.034 195.958 198.834 196.22C198.634 196.482 198.361 196.68 198.049 196.788C197.738 196.896 197.401 196.911 197.081 196.829C196.762 196.748 196.473 196.575 196.251 196.331C196.029 196.086 195.884 195.783 195.833 195.457C195.783 195.131 195.829 194.797 195.967 194.497C196.104 194.197 196.327 193.944 196.607 193.77C196.887 193.596 197.212 193.507 197.541 193.516C197.994 193.544 198.419 193.747 198.724 194.083C199.029 194.418 199.191 194.86 199.175 195.313Z" fill="#FEB674"/>
<g opacity="0.2">
<path opacity="0.2" d="M157.528 195.126C157.504 195.454 157.384 195.768 157.183 196.03C156.982 196.291 156.709 196.487 156.397 196.594C156.085 196.701 155.749 196.714 155.43 196.632C155.111 196.55 154.823 196.376 154.602 196.132C154.381 195.887 154.236 195.584 154.186 195.258C154.136 194.932 154.183 194.599 154.321 194.3C154.458 194 154.681 193.748 154.961 193.574C155.24 193.4 155.565 193.311 155.894 193.32C156.349 193.346 156.776 193.549 157.082 193.887C157.388 194.225 157.548 194.67 157.528 195.126Z" fill="white"/>
<path opacity="0.2" d="M162.732 195.15C162.748 195.38 162.717 195.612 162.64 195.829C162.563 196.047 162.442 196.246 162.284 196.415C162.127 196.584 161.936 196.719 161.724 196.811C161.513 196.903 161.284 196.95 161.053 196.95C160.822 196.95 160.594 196.903 160.382 196.811C160.171 196.719 159.98 196.584 159.823 196.415C159.665 196.246 159.544 196.047 159.467 195.829C159.39 195.612 159.358 195.38 159.375 195.15C159.358 194.92 159.39 194.689 159.467 194.471C159.544 194.253 159.665 194.054 159.823 193.885C159.98 193.716 160.171 193.582 160.382 193.49C160.594 193.398 160.822 193.35 161.053 193.35C161.284 193.35 161.513 193.398 161.724 193.49C161.936 193.582 162.127 193.716 162.284 193.885C162.442 194.054 162.563 194.253 162.64 194.471C162.717 194.689 162.748 194.92 162.732 195.15Z" fill="white"/>
<path opacity="0.2" d="M167.944 195.175C167.92 195.503 167.8 195.818 167.599 196.079C167.398 196.34 167.125 196.536 166.813 196.643C166.501 196.75 166.165 196.763 165.846 196.681C165.527 196.599 165.239 196.425 165.018 196.181C164.797 195.936 164.653 195.633 164.603 195.307C164.552 194.981 164.599 194.648 164.737 194.349C164.874 194.049 165.097 193.797 165.377 193.623C165.656 193.449 165.981 193.361 166.31 193.369C166.765 193.397 167.19 193.601 167.496 193.939C167.801 194.276 167.962 194.72 167.944 195.175Z" fill="white"/>
<path opacity="0.2" d="M173.148 195.199C173.124 195.528 173.004 195.842 172.803 196.103C172.602 196.364 172.328 196.56 172.017 196.667C171.705 196.775 171.369 196.788 171.05 196.706C170.731 196.623 170.443 196.449 170.222 196.205C170.001 195.961 169.856 195.657 169.806 195.331C169.756 195.006 169.803 194.672 169.941 194.373C170.078 194.074 170.301 193.821 170.58 193.647C170.86 193.473 171.185 193.385 171.514 193.394C171.968 193.421 172.394 193.625 172.699 193.963C173.005 194.3 173.166 194.744 173.148 195.199Z" fill="white"/>
<path opacity="0.2" d="M178.352 195.215C178.329 195.545 178.211 195.86 178.01 196.122C177.81 196.384 177.537 196.582 177.226 196.69C176.914 196.798 176.578 196.813 176.258 196.731C175.938 196.65 175.65 196.477 175.428 196.233C175.206 195.988 175.06 195.685 175.01 195.359C174.959 195.033 175.006 194.699 175.143 194.399C175.281 194.099 175.503 193.846 175.783 193.672C176.063 193.498 176.388 193.409 176.718 193.418C177.171 193.446 177.595 193.649 177.9 193.985C178.206 194.32 178.368 194.762 178.352 195.215Z" fill="white"/>
<path opacity="0.2" d="M183.564 195.24C183.541 195.567 183.424 195.881 183.226 196.143C183.027 196.404 182.757 196.602 182.448 196.712C182.138 196.821 181.804 196.838 181.485 196.76C181.166 196.682 180.877 196.513 180.654 196.273C180.43 196.033 180.281 195.733 180.226 195.409C180.171 195.086 180.211 194.753 180.342 194.452C180.474 194.152 180.69 193.896 180.965 193.716C181.24 193.537 181.561 193.442 181.889 193.443C182.349 193.46 182.784 193.659 183.098 193.995C183.412 194.332 183.579 194.78 183.564 195.24Z" fill="white"/>
<path opacity="0.2" d="M188.768 195.265C188.784 195.495 188.752 195.726 188.675 195.944C188.598 196.161 188.477 196.361 188.32 196.53C188.162 196.698 187.972 196.833 187.76 196.925C187.548 197.017 187.32 197.065 187.089 197.065C186.858 197.065 186.63 197.017 186.418 196.925C186.206 196.833 186.016 196.698 185.858 196.53C185.701 196.361 185.58 196.161 185.503 195.944C185.425 195.726 185.394 195.495 185.41 195.265C185.394 195.034 185.425 194.803 185.503 194.585C185.58 194.368 185.701 194.168 185.858 194C186.016 193.831 186.206 193.696 186.418 193.604C186.63 193.512 186.858 193.464 187.089 193.464C187.32 193.464 187.548 193.512 187.76 193.604C187.972 193.696 188.162 193.831 188.32 194C188.477 194.168 188.598 194.368 188.675 194.585C188.752 194.803 188.784 195.034 188.768 195.265Z" fill="white"/>
<path opacity="0.2" d="M193.971 195.289C193.949 195.616 193.832 195.93 193.633 196.192C193.435 196.453 193.165 196.651 192.855 196.761C192.546 196.87 192.212 196.887 191.893 196.809C191.574 196.731 191.285 196.562 191.061 196.322C190.838 196.082 190.689 195.781 190.634 195.458C190.578 195.135 190.619 194.802 190.75 194.501C190.881 194.201 191.098 193.945 191.373 193.765C191.647 193.586 191.969 193.491 192.297 193.492C192.757 193.509 193.192 193.707 193.505 194.044C193.819 194.381 193.987 194.829 193.971 195.289Z" fill="white"/>
<path opacity="0.2" d="M199.175 195.313C199.153 195.643 199.034 195.958 198.834 196.22C198.634 196.482 198.361 196.68 198.049 196.788C197.738 196.896 197.401 196.911 197.081 196.829C196.762 196.748 196.473 196.575 196.251 196.331C196.029 196.086 195.884 195.783 195.833 195.457C195.783 195.131 195.829 194.797 195.967 194.497C196.104 194.197 196.327 193.944 196.607 193.77C196.887 193.596 197.212 193.507 197.541 193.516C197.994 193.544 198.419 193.747 198.724 194.083C199.029 194.418 199.191 194.86 199.175 195.313Z" fill="white"/>
</g>
<path d="M191.782 77.3817C192.35 77.1317 192.831 76.7205 193.167 76.199C193.502 75.6775 193.677 75.0689 193.669 74.4489C193.69 74.0458 193.629 73.6427 193.489 73.264C193.35 72.8853 193.134 72.539 192.857 72.2462C192.579 71.9535 192.244 71.7203 191.873 71.561C191.503 71.4016 191.103 71.3195 190.7 71.3195C190.296 71.3195 189.897 71.4016 189.526 71.561C189.155 71.7203 188.82 71.9535 188.543 72.2462C188.265 72.539 188.049 72.8853 187.91 73.264C187.77 73.6427 187.709 74.0458 187.73 74.4489C187.718 75.0751 187.891 75.691 188.228 76.2188C188.566 76.7466 189.052 77.1626 189.625 77.4143C185.051 78.1006 185.255 83.0675 185.255 83.0675L196.071 83.1165C196.071 83.1165 196.324 78.0597 191.782 77.3817Z" fill="#FEB674"/>
<path opacity="0.1" d="M191.782 77.3817C192.35 77.1317 192.831 76.7205 193.167 76.199C193.502 75.6775 193.677 75.0689 193.669 74.4489C193.69 74.0458 193.629 73.6427 193.489 73.264C193.35 72.8853 193.134 72.539 192.857 72.2462C192.579 71.9535 192.244 71.7203 191.873 71.561C191.503 71.4016 191.103 71.3195 190.7 71.3195C190.296 71.3195 189.897 71.4016 189.526 71.561C189.155 71.7203 188.82 71.9535 188.543 72.2462C188.265 72.539 188.049 72.8853 187.91 73.264C187.77 73.6427 187.709 74.0458 187.73 74.4489C187.718 75.0751 187.891 75.691 188.228 76.2188C188.566 76.7466 189.052 77.1626 189.625 77.4143C185.051 78.1006 185.255 83.0675 185.255 83.0675L196.071 83.1165C196.071 83.1165 196.324 78.0597 191.782 77.3817Z" fill="black"/>
<path d="M209.358 86.3201L170.807 86.1451L170.786 90.7526L209.337 90.9275L209.358 86.3201Z" fill="#FEB674"/>
<path opacity="0.2" d="M209.358 86.3201L170.807 86.1451L170.786 90.7526L209.337 90.9275L209.358 86.3201Z" fill="white"/>
<path d="M67.6335 110.198H67.2495L66.1385 110.279C65.5373 110.316 64.9394 110.395 64.3494 110.516C63.9673 110.57 63.5883 110.644 63.2139 110.737L61.9477 111.088C59.7925 111.749 57.759 112.756 55.9269 114.07C53.5063 115.827 51.485 118.077 49.996 120.671C49.1209 122.166 48.4244 123.759 47.921 125.417C47.392 127.219 47.0875 129.079 47.0142 130.956C46.9655 131.942 46.9819 132.93 47.0632 133.913C47.0632 134.411 47.2021 134.91 47.2675 135.416C47.3224 135.927 47.418 136.432 47.5534 136.928C48.288 140.206 49.7785 143.267 51.9061 145.867C54.0336 148.467 56.7393 150.533 59.8073 151.902C62.0278 152.86 64.4078 153.395 66.8247 153.479C69.3211 153.616 71.8198 153.258 74.1771 152.425L74.896 152.155H74.994L75.0757 152.204L85.3772 157.432L85.0749 157.694C83.9721 154.279 82.9101 150.971 81.8807 147.793V147.67L81.9706 147.58C84.4696 145.063 86.3247 141.981 87.3787 138.594C88.3333 135.498 88.6118 132.233 88.1956 129.02C87.8253 126.164 86.9072 123.407 85.4916 120.899C84.2713 118.745 82.6971 116.812 80.8351 115.181C79.2988 113.89 77.5984 112.807 75.7783 111.962C74.401 111.368 72.9667 110.917 71.4976 110.614L69.8637 110.345L68.6792 110.255L67.9603 110.206H67.7152C67.7966 110.197 67.8788 110.197 67.9603 110.206H68.6873L69.8719 110.255L71.5057 110.492C72.9931 110.772 74.447 111.207 75.8436 111.791C77.6951 112.626 79.4261 113.706 80.9903 115.001C82.8866 116.625 84.4941 118.559 85.7448 120.72C87.2006 123.254 88.1469 126.049 88.5305 128.946C88.9813 132.209 88.7222 135.531 87.7708 138.684C86.7099 142.141 84.8261 145.289 82.281 147.858L82.33 147.646C83.3594 150.824 84.4295 154.132 85.5406 157.539L85.6958 158.037L85.2301 157.8L74.9287 152.58H75.1084L74.3732 152.85C71.9705 153.695 69.4255 154.061 66.8819 153.928C64.4129 153.834 61.9831 153.28 59.7175 152.294C55.3957 150.443 51.8 147.226 49.4813 143.136C48.4144 141.247 47.6352 139.21 47.1694 137.091C47.0419 136.583 46.9464 136.067 46.8835 135.547C46.8182 135.032 46.712 134.526 46.6875 134.019C46.4664 131.113 46.7736 128.19 47.5942 125.393C48.1102 123.712 48.826 122.099 49.7264 120.589C51.2509 117.971 53.3143 115.707 55.7799 113.947C57.6422 112.631 59.7097 111.631 61.8987 110.99L63.1812 110.663C63.5587 110.576 63.9405 110.508 64.3249 110.459C64.921 110.349 65.5245 110.283 66.1303 110.263L67.2495 110.222C67.3768 110.205 67.5051 110.197 67.6335 110.198Z" fill="#FEB674"/>
<path d="M72.2899 129.248H70.7786L67.5109 124.657V121.643C67.5109 121.643 65.1745 121.496 65.4522 125.442C65.73 129.387 65.4522 128.382 65.4522 128.382C65.4522 128.382 60.4935 128.382 60.085 128.832C59.6765 129.281 59.652 134.068 59.5948 136.74C59.5635 137.384 59.7483 138.02 60.1198 138.546C60.4913 139.073 61.0283 139.461 61.6453 139.648C61.8183 139.696 61.9969 139.721 62.1763 139.721C63.4181 139.721 69.7329 138.717 69.7329 138.717H72.3389L72.2899 129.248Z" fill="#FEB674"/>
<path d="M76.6115 128.44L75.6803 138.766H73.0988V128.652L76.6115 128.44Z" fill="#FEB674"/>
<path d="M107.401 338.66V331.675L94.8779 331.585L94.7717 342.148L95.5478 342.205C99.0034 342.426 113.128 342.753 115.448 342.034C118.03 341.233 107.401 338.66 107.401 338.66Z" fill="#FEB674"/>
<path d="M115.742 341.38C115.742 341.495 111.053 341.593 105.278 341.593C99.5019 341.593 94.8127 341.495 94.8127 341.38C94.8127 341.266 99.5019 341.168 105.278 341.168C111.053 341.168 115.742 341.266 115.742 341.38Z" fill="#263238"/>
<path d="M107.622 340.09C107.516 340.032 107.622 339.665 107.875 339.273C108.129 338.881 108.472 338.717 108.554 338.799C108.635 338.881 108.464 339.191 108.219 339.526C107.973 339.861 107.728 340.147 107.622 340.09Z" fill="#263238"/>
<path d="M108.423 340.547C108.308 340.547 108.366 340.089 108.611 339.656C108.856 339.223 109.182 338.962 109.272 339.027C109.362 339.093 109.215 339.46 108.986 339.844C108.758 340.228 108.529 340.588 108.423 340.547Z" fill="#263238"/>
<path d="M98.5869 341.348C98.5379 341.348 98.35 341.201 98.0804 340.89C97.7513 340.491 97.3848 340.125 96.9857 339.795C96.5933 339.482 96.1259 339.276 95.6296 339.199C95.2457 339.15 95.0006 339.199 94.9761 339.15C94.9516 339.101 95.1885 338.929 95.6378 338.897C96.2308 338.884 96.8092 339.081 97.2717 339.452C97.7049 339.805 98.0704 340.235 98.35 340.719C98.5379 341.078 98.6359 341.315 98.5869 341.348Z" fill="#263238"/>
<path d="M107.663 338.774C107.72 338.872 107.508 339.117 107.148 339.248C106.789 339.379 106.47 339.33 106.454 339.248C106.438 339.166 106.691 338.995 107.001 338.881C107.312 338.766 107.598 338.676 107.663 338.774Z" fill="#263238"/>
<path d="M107.467 338.096C107.467 338.219 107.14 338.317 106.715 338.325C106.291 338.333 105.956 338.235 105.964 338.121C105.972 338.006 106.307 337.9 106.715 337.892C107.124 337.884 107.451 337.982 107.467 338.096Z" fill="#263238"/>
<path d="M138.241 338.66V331.675L125.717 331.585L125.611 342.042L126.387 342.099C129.843 342.32 143.975 342.753 146.287 342.034C148.869 341.233 138.241 338.66 138.241 338.66Z" fill="#FEB674"/>
<path d="M146.581 341.397C146.581 341.511 141.9 341.609 136.117 341.609C130.333 341.609 125.66 341.511 125.66 341.397C125.66 341.282 130.341 341.184 136.117 341.184C141.892 341.184 146.581 341.282 146.581 341.397Z" fill="#263238"/>
<path d="M138.461 340.09C138.363 340.032 138.461 339.665 138.715 339.273C138.968 338.881 139.311 338.717 139.393 338.799C139.474 338.881 139.303 339.191 139.058 339.526C138.813 339.861 138.567 340.147 138.461 340.09Z" fill="#263238"/>
<path d="M139.262 340.547C139.156 340.547 139.205 340.089 139.458 339.656C139.711 339.223 140.03 338.962 140.12 339.027C140.209 339.093 140.054 339.46 139.825 339.844C139.597 340.228 139.376 340.588 139.262 340.547Z" fill="#263238"/>
<path d="M129.426 341.348C129.377 341.348 129.197 341.201 128.919 340.89C128.59 340.491 128.224 340.125 127.825 339.795C127.432 339.482 126.965 339.276 126.469 339.199C126.093 339.15 125.84 339.199 125.815 339.15C125.791 339.101 126.027 338.929 126.477 338.897C127.07 338.884 127.648 339.081 128.111 339.452C128.546 339.803 128.912 340.233 129.189 340.719C129.377 341.078 129.475 341.315 129.426 341.348Z" fill="#263238"/>
<path d="M138.502 338.774C138.559 338.872 138.347 339.117 137.987 339.248C137.628 339.379 137.309 339.33 137.293 339.248C137.277 339.166 137.53 338.995 137.84 338.881C138.151 338.766 138.437 338.676 138.502 338.774Z" fill="#263238"/>
<path d="M138.322 338.096C138.322 338.219 137.996 338.317 137.571 338.325C137.146 338.333 136.819 338.235 136.827 338.121C136.835 338.006 137.162 337.9 137.571 337.892C137.979 337.884 138.322 337.982 138.322 338.096Z" fill="#263238"/>
<path d="M184.381 131.242C184.054 130.907 183.245 131.07 183.245 131.07C183.326 130.6 183.326 130.119 183.245 129.649C183.098 129.191 182.069 129.281 182.069 129.281C182.021 128.896 182.021 128.506 182.069 128.121C182.077 128.036 182.059 127.95 182.016 127.875C181.974 127.801 181.91 127.741 181.832 127.705C181.345 127.506 180.822 127.411 180.296 127.427C179.667 126.977 182.216 123.407 183.164 122.264C184.111 121.12 183.94 120.23 183.098 120.23C182.518 120.23 179.545 123.661 178.63 124.813C177.715 125.964 175.288 129.167 175.207 126.61C175.125 124.053 174.096 122.125 173.45 121.798C172.805 121.471 172.119 122.239 172.47 122.95C172.779 123.757 172.971 124.605 173.042 125.466C173.131 126.152 173.1 126.849 172.952 127.525C172.681 128.782 172.312 130.017 171.849 131.217H171.784C171.784 131.217 153.958 148.316 152.668 149.533C151.516 150.628 128.348 148.234 123.699 147.744C122.12 147.513 120.525 147.403 118.928 147.417C116.911 147.507 116.551 147.793 114.542 147.817C109.466 147.874 104.403 148.319 99.3957 149.149C97.1284 149.534 95.0106 150.535 93.2732 152.042C91.5358 153.549 90.2457 155.504 89.5435 157.694C84.8625 172.317 74.2588 206.93 72.388 226.373C70.9744 228.937 69.6982 231.574 68.5648 234.273C67.2496 237.851 67.5682 237.974 68.0093 238.055C69.202 238.276 70.5581 231.855 71.0646 233.407C71.5711 234.959 68.4913 241.062 69.7412 241.241C71.3751 241.47 72.674 234.706 72.8292 234.167C72.9844 233.627 73.7932 233.799 73.6461 234.306C73.4092 235.024 71.1136 242.646 72.7148 242.891C73.5971 243.022 73.6951 241.413 73.6951 241.413C73.6951 241.413 75.329 234.118 76.0724 234.265C76.8158 234.412 76.0234 238.717 75.6476 240.155C75.2718 241.593 75.7946 242.32 76.5626 241.968C77.0854 241.723 78.3353 237.353 78.6784 235.931C79.0215 234.51 79.8793 230.572 81.0312 232.851C82.183 235.131 83.9313 236.454 84.6502 236.487C84.8121 236.468 84.9648 236.401 85.0886 236.295C85.2123 236.189 85.3015 236.048 85.3445 235.891C85.3876 235.734 85.3826 235.567 85.3302 235.413C85.2778 235.258 85.1803 235.123 85.0504 235.024C84.4321 234.421 83.9014 233.733 83.4738 232.982C83.0927 232.397 82.8163 231.75 82.6568 231.07C82.3276 229.715 82.1361 228.33 82.085 226.937L81.9543 226.12C83.7842 217.06 89.0534 190.469 96.659 173.485L99.7797 179.906L101.136 184.661L92.8194 205.19L128.29 204.725L122.997 184.35L129.426 163.11C136.378 163.265 154.228 163.527 157.202 162.179C160.943 160.545 180.296 136.103 180.296 136.103C181.558 135.122 182.766 134.075 183.915 132.966C183.915 132.966 185.092 131.977 184.381 131.242Z" fill="#FFBE9D"/>
<path d="M91.259 190.02C92.2883 186.507 97.5738 169.139 97.5738 169.139C97.5738 169.139 100.172 183.296 99.4855 185.004C98.8542 186.465 98.1085 187.875 97.2552 189.219C91.259 198.344 92.0432 202.911 92.0432 202.911L128.274 201.808C128.356 196.743 125.358 184.963 124.737 183.084C124.116 181.205 126.183 175.054 126.183 175.054C126.183 175.054 130.267 170.895 130.12 168.755C130.043 166.832 129.805 164.92 129.41 163.037L151.467 163.853L150.772 148.904L119.092 145.734C117.989 148.847 108.014 147.319 108.014 147.319C97.2471 147.678 96.5772 149.655 92.1004 153.135C87.6237 156.616 80.2141 186.482 80.2141 186.482L91.259 190.02Z" fill="#FEB674"/>
<path d="M112.679 186.483C112.051 186.595 111.412 186.628 110.775 186.581C109.591 186.581 107.965 186.499 106.176 186.319C104.387 186.139 102.77 185.886 101.618 185.657C100.983 185.576 100.36 185.416 99.7633 185.184C100.402 185.184 101.039 185.244 101.667 185.363C102.827 185.51 104.436 185.715 106.217 185.894C107.998 186.074 109.615 186.197 110.784 186.278C111.42 186.286 112.055 186.355 112.679 186.483Z" fill="#263238"/>
<path d="M115.162 183.403C114.534 183.71 113.87 183.938 113.185 184.081C109.926 184.937 106.564 185.336 103.194 185.265C102.497 185.288 101.8 185.222 101.119 185.069C101.807 184.982 102.501 184.947 103.194 184.963C104.477 184.922 106.242 184.832 108.186 184.603C110.13 184.375 111.862 184.048 113.087 183.787C113.768 183.605 114.462 183.476 115.162 183.403Z" fill="#263238"/>
<path d="M127.351 169.662C127.334 170.285 127.25 170.904 127.098 171.508C126.885 172.644 126.559 174.196 126.142 175.895C125.725 177.594 125.325 179.163 124.966 180.225C124.821 180.833 124.607 181.422 124.328 181.981C124.374 181.36 124.489 180.746 124.671 180.151C124.982 178.877 125.333 177.406 125.725 175.797C126.117 174.188 126.493 172.717 126.804 171.443C126.914 170.829 127.098 170.231 127.351 169.662Z" fill="#263238"/>
<path d="M91.643 187.937C89.7531 187.645 87.8879 187.211 86.0634 186.638C84.1991 186.202 82.3696 185.628 80.59 184.922C82.479 185.219 84.3438 185.653 86.1696 186.221C88.0343 186.655 89.8639 187.229 91.643 187.937Z" fill="#263238"/>
<path d="M129.802 162.857C129.494 162.91 129.179 162.91 128.87 162.857C128.017 162.769 127.179 162.569 126.379 162.261C125.042 161.758 123.826 160.982 122.807 159.982C121.789 158.982 120.991 157.779 120.464 156.452C119.883 154.992 119.634 153.421 119.737 151.853C119.774 150.559 120.16 149.3 120.856 148.209C121.346 147.475 122.077 146.934 122.923 146.682C123.149 146.619 123.383 146.589 123.618 146.592C123.781 146.592 123.863 146.592 123.863 146.592C123.863 146.592 123.52 146.592 122.972 146.812C122.196 147.099 121.538 147.637 121.101 148.34C119.99 150.088 119.68 153.283 120.865 156.264C121.416 157.67 122.279 158.933 123.389 159.957C124.298 160.795 125.346 161.469 126.485 161.95C127.554 162.373 128.666 162.677 129.802 162.857Z" fill="#263238"/>
<path d="M148.844 163.559C148.64 161.054 148.574 158.54 148.648 156.027C148.584 153.517 148.661 151.005 148.877 148.503C149.081 151.006 149.147 153.518 149.073 156.027C149.142 158.54 149.065 161.055 148.844 163.559Z" fill="#263238"/>
<path d="M118.879 146.649C118.969 144.827 119.157 142.769 119.157 142.769C119.157 142.769 123.667 142.27 123.936 137.614C124.206 132.957 123.936 122.215 123.936 122.215L115.767 118.032L106.699 125.164L108.096 148.446L116.412 148.977C117.048 148.995 117.665 148.76 118.127 148.323C118.59 147.887 118.86 147.285 118.879 146.649Z" fill="#FFBE9D"/>
<path d="M119.688 133.929C119.688 133.929 119.688 134.019 119.615 134.126C119.554 134.203 119.475 134.264 119.385 134.303C119.296 134.343 119.198 134.361 119.1 134.354C118.577 134.354 118.071 133.75 117.891 133.047C117.805 132.707 117.805 132.35 117.891 132.01C117.908 131.861 117.961 131.719 118.047 131.596C118.132 131.474 118.247 131.374 118.381 131.307C118.491 131.262 118.614 131.262 118.724 131.307C118.806 131.348 118.872 131.414 118.912 131.495C118.969 131.634 118.912 131.724 118.912 131.716C118.912 131.707 118.912 131.634 118.83 131.552C118.788 131.494 118.725 131.453 118.654 131.438C118.583 131.423 118.509 131.434 118.446 131.47C118.346 131.531 118.263 131.616 118.204 131.717C118.146 131.819 118.114 131.933 118.111 132.051C118.043 132.354 118.043 132.67 118.111 132.974C118.275 133.611 118.716 134.126 119.108 134.175C119.185 134.185 119.263 134.179 119.337 134.158C119.412 134.137 119.481 134.101 119.541 134.052C119.639 133.987 119.672 133.921 119.688 133.929Z" fill="#EB996E"/>
<path d="M126.738 119.699C126.109 117.558 123.83 116.496 121.755 115.908C118.593 115.009 115.179 114.617 112.091 115.753C109.003 116.888 105.294 118.882 105.294 122.288C103.472 122.141 102.426 123.734 101.708 125.711C101.248 126.916 100.972 128.182 100.891 129.469C100.662 133.929 99.4119 140.089 96.52 143.357C94.8862 145.179 92.6233 146.437 91.692 148.708C90.875 150.676 91.2998 153.013 90.5401 155.006C89.862 156.763 88.3671 158.012 87.2724 159.54C86.1571 161.273 85.5008 163.261 85.365 165.318C85.2293 167.374 85.6186 169.431 86.4963 171.296C87.3803 173.113 88.625 174.73 90.1545 176.051C91.684 177.371 93.4662 178.366 95.3926 178.975C99.2086 180.136 103.278 180.176 107.116 179.089C109.996 178.401 112.683 177.068 114.974 175.193C117.319 173.278 118.93 170.611 119.533 167.644C120.113 164.311 119.182 160.921 118.487 157.604C116.314 147.123 116.935 146.576 119.68 136.846C119.745 136.674 119.778 136.495 119.827 136.323C119.876 136.151 119.901 136.07 119.933 135.939C120.011 135.554 120.052 135.163 120.056 134.771C119.655 134.92 119.22 134.952 118.801 134.862C118.383 134.772 117.999 134.565 117.695 134.264C117.39 133.944 117.177 133.547 117.079 133.116C116.981 132.684 117.002 132.234 117.139 131.814C117.332 131.354 117.619 130.939 117.982 130.597C118.345 130.255 118.776 129.993 119.247 129.828C120.154 129.453 121.126 129.257 122.016 128.84C123.903 127.941 125.211 126.079 126.101 124.126C126.833 122.773 127.059 121.203 126.738 119.699Z" fill="#263238"/>
<path d="M120.015 134.15C120.188 134.405 120.33 134.679 120.44 134.967C120.685 135.482 121.012 136.209 121.371 137.05L121.436 137.205H121.265L120.448 137.279C119.884 137.279 119.41 137.385 118.855 137.377C118.807 137.366 118.762 137.343 118.725 137.31C118.687 137.277 118.659 137.236 118.643 137.189C118.618 137.115 118.618 137.035 118.643 136.96C118.661 136.85 118.686 136.741 118.716 136.633L118.863 136.053C118.937 135.667 119.052 135.289 119.206 134.926C119.191 135.321 119.133 135.712 119.035 136.094L118.92 136.674C118.879 136.87 118.806 137.173 118.92 137.148C119.329 137.148 119.909 137.058 120.448 137.026L121.265 136.952L121.159 137.132C120.807 136.315 120.513 135.547 120.342 135.016C120.191 134.745 120.081 134.453 120.015 134.15Z" fill="#FEB674"/>
<path d="M92.0434 202.911L128.274 201.808L144.041 263.355L141.141 333.954H121.984L124.328 264.859L110.318 222.011L112.475 336.691L93.1135 336.977L91.0794 229.183C90.9895 226.185 90.0092 219.429 90.3768 216.456L92.0434 202.911Z" fill="#263238"/>
<path d="M115.138 222.885C114.545 222.922 113.949 222.886 113.365 222.779C112.27 222.648 110.775 222.419 109.133 222.092C107.491 221.766 106.021 221.39 104.959 221.088C104.391 220.963 103.842 220.765 103.325 220.499C103.325 220.377 105.988 221.014 109.256 221.676C112.524 222.337 115.154 222.762 115.138 222.885Z" fill="#455A64"/>
<path d="M140.945 330.082C140.945 330.196 136.607 330.294 131.256 330.294C125.905 330.294 121.559 330.196 121.559 330.082C121.559 329.968 125.897 329.87 131.256 329.87C136.615 329.87 140.945 329.959 140.945 330.082Z" fill="#455A64"/>
<path d="M112.303 333.709C112.303 333.832 108.088 333.922 102.892 333.922C97.6964 333.922 93.4893 333.832 93.4893 333.709C93.4893 333.587 97.7046 333.497 102.892 333.497C108.08 333.497 112.303 333.595 112.303 333.709Z" fill="#455A64"/>
<path d="M109.803 333.415C109.689 333.415 109.182 308.36 108.668 277.456C108.153 246.551 107.851 221.48 107.957 221.48C108.063 221.48 108.586 246.527 109.092 277.447C109.599 308.368 109.926 333.415 109.803 333.415Z" fill="#455A64"/>
<path d="M138.371 330.082C138.362 329.971 138.362 329.859 138.371 329.747V328.767C138.371 327.885 138.437 326.618 138.486 325.009C138.6 321.741 138.763 316.995 138.968 311.178C139.409 299.48 140.03 283.354 140.708 265.553C140.708 265.381 140.708 265.218 140.708 265.071V265.128C136.419 247.973 132.538 232.402 129.72 221.137L126.452 207.812C126.077 206.252 125.791 205.035 125.586 204.185C125.488 203.785 125.423 203.475 125.366 203.238C125.334 203.131 125.315 203.022 125.309 202.911C125.351 203.014 125.384 203.12 125.407 203.229C125.472 203.458 125.554 203.769 125.668 204.161C125.889 204.978 126.207 206.219 126.616 207.772C127.433 210.925 128.584 215.467 130.022 221.063C132.865 232.32 136.786 247.85 141.132 265.03V265.087C141.132 265.234 141.132 265.406 141.132 265.569C140.405 283.37 139.744 299.488 139.262 311.187C139.008 317.011 138.796 321.725 138.649 325.009C138.567 326.643 138.502 327.885 138.461 328.767C138.461 329.184 138.412 329.51 138.404 329.747C138.405 329.86 138.394 329.972 138.371 330.082Z" fill="#455A64"/>
<path d="M132.122 263.633C130.746 264.086 129.328 264.4 127.89 264.573C126.126 264.875 124.623 265.087 123.944 265.12V264.957C124.165 265.022 124.279 265.063 124.279 265.095C124.279 265.128 124.141 265.095 123.912 265.095H123.422L123.912 264.948C124.549 264.761 126.052 264.45 127.817 264.131C129.232 263.824 130.674 263.658 132.122 263.633Z" fill="#455A64"/>
<path d="M131.787 265.978C130.513 266.036 129.236 265.979 127.972 265.806C126.696 265.78 125.424 265.641 124.173 265.39C126.726 265.181 129.296 265.38 131.787 265.978Z" fill="#455A64"/>
<path opacity="0.2" d="M91.8881 204.21C92.3171 204.761 92.8576 205.215 93.4742 205.543C94.0907 205.871 94.7695 206.065 95.4662 206.113C96.9254 206.286 98.4014 206.259 99.8531 206.031C109.207 204.994 119.116 204.038 128.274 201.808C116.42 202.47 103.897 202.249 92.0433 202.911L91.9207 203.924" fill="black"/>
<g opacity="0.2">
<path opacity="0.2" d="M104.101 220.916L110.784 246.845L110.318 222.011L104.101 220.916Z" fill="black"/>
</g>
</g>
<defs>
<clipPath id="clip0">
<rect width="349" height="342.571" fill="white" transform="translate(0 0.2146)"/>
</clipPath>
</defs>
</svg>
